<svg id="Capa_1" data-name="Capa 1" xmlns="http://www.w3.org/2000/svg" viewBox="0 0 260.65 218.36"><defs><style>.cls-1{fill:#706f6f;}</style></defs><path class="cls-1" d="M17.42,115.35C12.76,77.11,44,38.44,83.82,41.78c38.89,0,77.78.19,116.67-.11,31.64-1.59,60.62,21.95,64.56,53.55,2.41,8.81,5.71,22.67-8.24,21.67-17.4-.38-34.8-1.13-52.2-1.17C142.1,116.58,80,116.57,17.42,115.35ZM144.2,52.08c-20.77-1.36-40.88-.42-61.6-.47-18.3.3-37.13,7.21-46.48,23.79-3.27,5.8-15.29,29.68-2.7,30,41.21,2.91,82.62-.17,123.83,1,32.4-2,65.93,4.39,97.66-2.78,1.62-21-11.86-40.76-31.1-48.09-24.21-7.22-50.23-3.3-75.28-3.32,2.66,9.64,2,17.93-7.89,23.41-4.47-2.48-19.45-9.77-10.54-15.12C136.62,59.85,142.05,61,144.2,52.08Z" transform="translate(-11.41 -41.58)"/><path class="cls-1" d="M139.75,201.77c-37.25-.37-74.57,1.09-111.76-1.26-7.93-1.44-11.74-5.56-12-12.89-1.37-13.26,11.21-16.44,21.86-15.92,45.29,1.33,90.52-.24,135.81.86,27.07-.39,54.16-1.6,81.21.18,7.36.4,11.6,5,12.44,12.47,1.2,22.87-31.65,14.23-46.16,16.51C194,201.85,166.9,201.77,139.75,201.77ZM142,182.3c-34.84,0-69.69-.1-104.54.06-3.42.52-9.38-.4-10.07,4.08.53,4.45,6.59,3.72,9.89,4.2q103.94.2,207.86.22c3.64-.33,11.16.57,10.52-4.81a4.83,4.83,0,0,0-3.1-3.11C215.84,181.29,178.87,182.79,142,182.3Z" transform="translate(-11.41 -41.58)"/><path class="cls-1" d="M137.11,206.66c30.41,0,60.81.06,91.22,0,11.63.14,23.53-2.24,35,.74,3.51.91,4.91,4.3,3.78,7.76-9.69,35.44-46.72,46.32-80,44.35-33.22-.51-66.45.73-99.67.39-30,1.36-64.43-14.94-71.27-46.62-.64-8.64,10.64-6.94,16.38-7.41q52.27.53,104.54,1.26ZM251.76,217.1H29.45C34.79,244,67.69,250,91,249.47c35.27.08,70.54,0,105.81.06a101.24,101.24,0,0,0,29.9-4.64C236,242.36,257.19,228.15,251.76,217.1Z" transform="translate(-11.41 -41.58)"/><path class="cls-1" d="M246.52,164.23c-36.65,1.33-17.35-41.17-50-30.26-8.74,2.89-6.93,13.61-11.61,19.95-5.08,8.68-14.82,11.11-24.37,9.9-11.09,1.28-21.57-7.07-23.17-18.27-3.22-18.92-32-16.65-32.87,1.35-3.32,18.19-28.15,22-41.8,13-5.66-3.65-8.64-9.21-9.86-16.06C51.33,128.63,29,129.2,23.3,140.34c-1.13,2.12-1.91,4.51-3.41,6.31-3.79,4.32-9.8-1.59-8.22-6.12,3.31-14.42,18.25-20,31.61-17.8,10.59,1.28,18.38,9.51,20.07,19.85,3.1,15.7,29,16.34,31.84-.32,2.8-21.06,31-25.73,45.13-13a20.1,20.1,0,0,1,6,11.53c3.17,11.7,11.46,16.31,23,12.53,10.8-2.46,7.56-15.35,14.36-22.23,11.66-14.84,43.93-10.21,46.37,10.4.71,7.79,5.77,11.36,12.69,12.55,10.54,2.73,17.07-4.92,21.43-13.72,4.46-4.86,9,2.31,7.64,6.89C269.47,158.17,257,165.07,246.52,164.23Z" transform="translate(-11.41 -41.58)"/><path class="cls-1" d="M211.31,77.27C206.26,76,191.48,66.37,201.5,62c5.3-.17,16.16-6.63,18.27.75C220.6,67.91,216.92,76.51,211.31,77.27Z" transform="translate(-11.41 -41.58)"/><path class="cls-1" d="M123.47,79.77c-2.7,5.38-7,8-12.17,9.43-8.27,1.7-7.92-9.66-9.72-15-.46-2.39,2.6-4.71,4.76-3.89C112.18,73.23,120.11,73.54,123.47,79.77Z" transform="translate(-11.41 -41.58)"/><path class="cls-1" d="M78.48,57c10,2.47,7.41,18.88-1.29,20.33-4.89-.15-19.56-6-12.18-11.74A27.88,27.88,0,0,0,78.48,57Z" transform="translate(-11.41 -41.58)"/><path class="cls-1" d="M169.59,66.07c3,.76,7.37,2.41,12.42,1.35,3.66-.77,6.18,4.68,4,7.86-4.64,7.52-14.49,13.35-19,2.25C164.8,73.09,160.8,66.57,169.59,66.07Z" transform="translate(-11.41 -41.58)"/></svg>