<svg id="Capa_1" data-name="Capa 1" xmlns="http://www.w3.org/2000/svg" viewBox="0 0 209.54 282.08"><defs><style>.cls-1{fill:#706f6f;}</style></defs><path class="cls-1" d="M237.12,101.26c-5.6-1.64-10.88-.75-16.07,1.5-2.93,1.27-5.77,3-9.32,1.74-1.06-6.7,2.35-12.91,2.78-19.57,2.12-16-9-22.68-22.66-27.6,4.5-21.46-8.67-24.66-24.8-14.26-13,5.42-5.69,21.33-13.88,29.56-2.25-4.36-2.54-8.31-2.84-12.33a232.56,232.56,0,0,0-9.68-51.75c-2.09-6.72-7.24-9.18-13.72-6.76C117.36,5.36,109.12,19,110.74,29c.87,5.42,2.21,10.76,3.28,16.14.64,3.2,1.82,6.44-.17,9.44-2.34,1.11-3.61,0-4.21-2-1.58-5.26-3-10.57-6.21-15.17C95,23.81,71.54,51,77.65,62.08,81,76.81,63.76,55.24,51.25,99c-2.06,1.08-6.43.71-8.29,4.47a108.27,108.27,0,0,0-5.14,10.91C34,123.69,44,129.68,48.57,137l-6.79,8.61c11.77,41.38,19.48,84,28.38,126.09,1.31,5.44,2.21,12.36,9.25,11.13a578.39,578.39,0,0,1,125.06.11c5.25.54,7.22-3.88,8.35-8.44,4.32-19.66,8.08-39.44,12.35-59.11q6.87-30,14.15-59.88c1.57-6.44,1.67-12.26-3.72-17.09-.44-.39-.34-1.38-.62-2.7C241.58,125.93,256.05,106.68,237.12,101.26ZM188.26,88.49a108.15,108.15,0,0,1,4.37-15.72c5.88-8.85,14.25,4.45,12.44,12.46-3,13.37-5.21,30.55-9.27,44.28-1.29,2.94-5.67,4.12-9.64,2.91-6.5-2.47-1.91-11.76-1.67-16.9C185.76,106.51,186.69,97.44,188.26,88.49ZM151,146.11c3-15.06,6.12-30.09,9-45.17,2.54-13.27,5-26.57,7.09-39.92a16.83,16.83,0,0,1,8.86-13c6.69-3.23,7.58,5.21,6.42,9.61-5.64,29.47-12.6,58.42-20.52,87.27-1.15,4.08-2.6,7.56-6.73,9.36C149.52,156,150.05,149.59,151,146.11Zm-7.22-27.59h.82V122h-.82ZM129.89,11.12c6.26,10.2,6.45,20.73,8.78,31.94.79,4.92-1.13,7.38-5.19,7.89-6,.76-9.42-.78-10.24-5.36C122,33.22,115,18.59,129.89,11.12ZM116.19,71c.15-7.15,7.85-8.6,13.18-10.85,7-1.81,7.18,7.16,6.91,11.92-.1,23.15-4.63,45.88-6.22,68.94-.25,2.59-.42,5.15-3.27,6.41C112.35,147.19,117.19,83.88,116.19,71ZM93.81,45.32c2.47-1.37,5.1,1.17,5.34,3.66,3.92,19.39,6.48,38.88,6.67,58.74h.3c-1.1,5.86,3.11,23.06-3.56,24.65-9.08,1.55-6.74-19.83-8.23-25.73-2.43-15.15-4.88-30.3-7.48-45.42A16.15,16.15,0,0,1,93.81,45.32ZM69.21,81.06c9.83-8.22,17.55,41.78,18.38,48.26-12.92,14.78-15.76-15.45-19.45-23.21C64.67,97.77,60.71,87.81,69.21,81.06ZM48.36,121.39c-4.5-6.43,2.7-15.19,9-9.38,5.36,4.71,6.46,12.12,8.79,18.53.84,2.72-1.31,5.55-4.72,5.43C55.71,133.4,52.56,126,48.36,121.39Zm181.11,32.66c-5.84,30.51-14,60.61-20,91.11-1.57,7.15-3.15,14.3-4.93,21.4-1.4,5.58-3.53,6.71-9.63,6.33a672.41,672.41,0,0,0-109.74,0c-3.87-.29-5.71-2-6.57-6.05-3.71-17.55-7.27-35.14-11.08-52.67-5-21.47-10-42.62-14.43-64.3,1.53-1,2.62-2.17,3.93-2.5A180.83,180.83,0,0,1,102.67,142c13.48.76,15.69,20.24,34.08,23.65,9.37,2.89,17.48.68,24.79-4.81,9.62-5.87,13.07-20,26.18-18.87,12.19.28,24,2.57,35.95,4.41C228.35,147.08,229.86,149.39,229.47,154.05Zm6.12-37.23a162.15,162.15,0,0,1-12.47,17.67c-2.42,3-10.11,1.68-12.67-1.69a3.41,3.41,0,0,1-.47-3c4.85-7.11,9.53-18.6,18.91-19.4C235,110.37,237.57,113.57,235.59,116.82Z" transform="translate(-36.96 -0.88)"/><path class="cls-1" d="M160.13,184.48c-15.51-14.5-34.35-11-46.25,3.57-7.83,10.31-11.48,23.19-3.48,34.55C135.11,267.24,197.55,218.31,160.13,184.48Zm-21.37,46.73c-30.5-1.24-30.6-44.55.25-46.2,12.21-.08,23.25,11,23.26,23.24C162.28,220,150.07,232.32,138.76,231.21Z" transform="translate(-36.96 -0.88)"/></svg>