<svg id="Capa_1" data-name="Capa 1" xmlns="http://www.w3.org/2000/svg" viewBox="0 0 281.23 281.25"><defs><style>.cls-1{fill:#706f6f;}</style></defs><path class="cls-1" d="M1.16,140c0-89,94.4-159.6,180.45-131.47,2.89.64,5.43,1.76,8.21.08,6.64-4,13-1.86,16.11,3.86,5.54,10,12.53,12.83,23.27,9.6,10.54-3,23.6,8.53,20.78,19.6-1.78,8.18,1.45,14,6,20.35,11.2,15.51,19.57,32.45,22.73,51.57,17.66,71.19-31.25,147-101.37,165C90,303.4-1.15,230.57,1.16,140Zm211.31,75.65c8.28,5.42,8.91,8.25,2.86,13.06-18.43,14.64-39.07,24.58-62.74,26.48-8.32.66-12.8,4.48-15.84,11.41-1.36,3.11.31,5.94,3.81,5.84,53,.39,103.83-32,122.07-82.63,13.45-33.26,11.59-69.39-3.25-102-3.38-5.19-14.2-33.46-21.15-20.16-1.26,5.65-6.47,13.94-.61,18.4,6,4,6.95,11,10.44,16.5,5.25,9-7.81,15.41-11.11,4.1-3.35-7.73-4.2-16.73-11.47-22.57-1-.81-1.44-3.14-1.17-4.6-1.83-12.94,30.7-45.92,6.05-47.1-7.75.71-11.39,10.33-19.7,9-16.4.37-2.45-22.09-16.06-22.59-4.29,2.35-5.8,6.85-8.3,10.57-6.66,9.89-16.81,12.61-27.8,13.33A5.14,5.14,0,0,1,153,38.59c-.62-7.31,9.67-6.52,14.5-8.48,5.53-.74,15.24-8.27,7.64-12.85a127.37,127.37,0,0,0-46.52-3.83C33.32,23.27-19,130.13,31.53,211.36c16.44,27.39,41.55,44,70.54,55.49,2.26.9,5.6-1.43,5.13-3.68-1.71-8.15-3.83-15-13.44-18.72C12.56,208.75,6.81,93.21,81.59,46.72c2.63-2.37,6.36-.87,8.48,1.15,4.67,5.86-20.56,20.69-24.62,26.7C55.36,84.62,48.75,97.08,44,110.29c-8.25,23.88-5.43,50.58,3.78,73.78,1,2.5,2.23,5.25,6.33,5.3,4.27-6.43,5.72-36.58,17.15-22.19,1.31,6.84-3.88,15.49-5.55,22.35-2,3.41-5.9,5.52-8.95,8.43,9.24,18.22,27.23,30.53,45.42,38.74,13.29,5,11.76,11.54,15.41,23,5.85,8.52,12-1,15.23-6.38C145.86,235.68,178.63,252.45,212.47,215.61Z" transform="translate(-1.12 -2.22)"/><path class="cls-1" d="M200.15,128.61c-1.06,31.77-47.8,31.93-48.65.1C155.09,98.26,195.79,95.54,200.15,128.61ZM186.74,124c-7.27-20-34.24-1-20.28,14.16,3.71,4.77,15.4,6.25,16.63-1.25-.36-3.23-4.77-2.43-7-3.52-5.77-1-5.6-9.76.72-9.38C179.17,123.94,181.55,124,186.74,124Z" transform="translate(-1.12 -2.22)"/><path class="cls-1" d="M151.93,235.16c-32.28-1.37-33.05-44.22-1.44-48.25C180,187.33,185.37,233.29,151.93,235.16Zm-3.24-32.67c-.92-2.06-1.55-3.52-3.64-2.93-18.72,9.68,3,37.47,16.47,19.25,2.88-3,5.54-11.19.54-12.7-4.88-.78-4.83,6.14-8.21,8-1.44.5-3.54,1.4-4.41.79-1.46-1-3.06-3.17-3-4.76C146.58,207.41,148,204.76,148.69,202.49Z" transform="translate(-1.12 -2.22)"/><path class="cls-1" d="M166,83.4c.15,24.16-34.1,34.46-46.06,11.13-5.93-12-.68-25.41,11.45-32.07C148.8,52.93,165.87,70.8,166,83.4ZM128.3,80.83c-1.43,12.4,10.66,21.11,20,14.81,11.55-6.77,7.69-22-4.39-25.47a2.37,2.37,0,0,0-2.18.59c-3,3.95,2.35,6.88,3.6,10.4.94,1.85,1,4.24-1.12,5.45C138,89.17,135.18,84,128.3,80.83Z" transform="translate(-1.12 -2.22)"/><path class="cls-1" d="M93.65,164.27c-32.61.14-33.22-46.8-1.33-47.91C121.39,116.44,125.21,163,93.65,164.27Zm-1.2-28.87c5.18,3,3.68,8,4.69,13,.49,2,3.73,2,4.9.9,5-5.51,4.92-12,0-17.58-9.44-12.31-27.87,1.2-22.42,14.18,4.88,7,7.06-3.88,8.75-7.29C89.07,137.35,90.76,136.68,92.45,135.4Z" transform="translate(-1.12 -2.22)"/><path class="cls-1" d="M125.06,41.46c1.16,6,4.9,10-.25,13.81-8.89,7.26-27,7.37-13.47-7.27-3.4-2.5-9.63-3.5-8.2-8.61.44-1.7,2-4,3.46-4.41,11.27-2.95,23.23-6.78,35-5a5.51,5.51,0,0,1,4.18,5.4C145.08,43.36,132.19,39.84,125.06,41.46Z" transform="translate(-1.12 -2.22)"/><path class="cls-1" d="M254.67,147.21c-.62,18.63-5.72,34.16-13.44,48.92-3.64,4-9.19,1.1-9.41-3.8-.1-1.87,1-3.89,1.89-5.71,7.12-13.78,10.91-28.22,10.06-43.9C246.63,132.78,256.43,140,254.67,147.21Z" transform="translate(-1.12 -2.22)"/><path class="cls-1" d="M105.75,176.06c7,2.06,23.72.19,25.83,7.44.59,2.56-1.08,4.64-3.66,5.56-7.81,1.69-16.17-1.5-24.1-2.11-3.9-.64-5.78-2.65-5.67-5.27C98.15,178.31,101.88,175.85,105.75,176.06Z" transform="translate(-1.12 -2.22)"/><path class="cls-1" d="M193.07,153.88c8.53,2.09,15.53,9.25,23.18,13.72,1.23.87,2,3.72,1.58,5.31-5.18,9.56-19.59-6.1-25.57-9.25A5.69,5.69,0,0,1,193.07,153.88Z" transform="translate(-1.12 -2.22)"/><path class="cls-1" d="M139.49,150.56c8.25,1,14.64,5.9,22.24,8.88,2.56,1.12,3.31,4.65,3.6,7.07-4.19,8.74-18.79-2.77-25.25-4.5-3.39-1.15-5.76-5.3-4.81-8.52C135.88,152,138.29,151.32,139.49,150.56Z" transform="translate(-1.12 -2.22)"/><path class="cls-1" d="M107,96.67c-.43,4.51-5.5,7.54-8.37,5.37-4.36-4.57-23.17-14.56-19.11-21,.86-1,4.87-2,6.53-1.22,6.41,4.39,12.87,8.7,19.14,13.28C106.32,93.9,106.61,95.86,107,96.67Z" transform="translate(-1.12 -2.22)"/><path class="cls-1" d="M209.82,95.61c-10.7,12.49-14.82-8.91-19-16a5,5,0,1,1,9-4.63C203.33,82,208,87.69,209.82,95.61Z" transform="translate(-1.12 -2.22)"/><path class="cls-1" d="M190.25,199.78c-.14,6.69-3.4,9.65-6.95,7.93-6.93-4-4.53-16.7-5.8-23.76-.05-1.47,2-3.92,3.48-4.3,2-.17,6.19,1.3,6.63,3.94C188.65,189.64,189.59,195.71,190.25,199.78Z" transform="translate(-1.12 -2.22)"/><path class="cls-1" d="M52.68,130c-3.83-.48-6.72-3.8-5.76-6.24,3.87-7.2,4.83-17.4,12-22C71.17,99.34,58.73,129.1,52.68,130Z" transform="translate(-1.12 -2.22)"/><path class="cls-1" d="M230.93,124.59c-.08.8.14,1.85-.28,2.35-5.27,6.18-10.49,12.4-16.11,18.23-.79.82-4.17.25-5.4-.79s-1.3-3.48-1.79-5.33c4.33-6.49,10.8-12.18,16.25-18C226.07,118.71,230.78,121.26,230.93,124.59Z" transform="translate(-1.12 -2.22)"/><path class="cls-1" d="M108.88,220.17c-3.29,14.39-16.85-4.34-22.38-7.95-1.94-1.71-1.31-6-.23-7.61,1.62-1.19,5.78-2,7.65-.16C98.75,209.36,106.64,213.55,108.88,220.17Z" transform="translate(-1.12 -2.22)"/><path class="cls-1" d="M144.52,121.33c-1.73,6.47-8.88,11.12-13.16,16.16a5.79,5.79,0,0,1-7.88.23c-1.67-1.34-3-3.6-1.43-5.32,5-5.33,10.29-10.46,15.77-15.32C139.83,115.3,144.28,117.77,144.52,121.33Z" transform="translate(-1.12 -2.22)"/><path class="cls-1" d="M187.15,47.12c7.69-.84,10.33,8,3.94,10.52-6.58,2.15-18.71,10-21.67-.49C169,51,183.67,49.36,187.15,47.12Z" transform="translate(-1.12 -2.22)"/><path class="cls-1" d="M209.84,213.47l-6.94-5.55c4.13-5.4,7.92-20.18,15-19.17C226.58,196.34,216.06,207,209.84,213.47Z" transform="translate(-1.12 -2.22)"/></svg>