<?xml version="1.0" encoding="utf-8"?>
<!-- Generator: Adobe Illustrator 24.1.1, SVG Export Plug-In . SVG Version: 6.00 Build 0)  -->
<svg version="1.1" id="Capa_1" xmlns="http://www.w3.org/2000/svg" xmlns:xlink="http://www.w3.org/1999/xlink" x="0px" y="0px"
	 viewBox="0 0 770.39 486.99" style="enable-background:new 0 0 770.39 486.99;" xml:space="preserve">
<style type="text/css">
	.st0{fill:url(#SVGID_1_);}
	.st1{fill:url(#SVGID_2_);}
	.st2{fill:url(#SVGID_3_);}
	.st3{fill:url(#SVGID_4_);}
	.st4{fill:#E75E4B;}
</style>
<g>
	
		<linearGradient id="SVGID_1_" gradientUnits="userSpaceOnUse" x1="609.1346" y1="160.543" x2="363.9192" y2="405.7583" gradientTransform="matrix(1 0 0 -1 0 487.8898)">
		<stop  offset="0" style="stop-color:#D91B7D"/>
		<stop  offset="1" style="stop-color:#F29223"/>
	</linearGradient>
	<path class="st0" d="M522.63,4.91H315.82c-9.98,0-18.08,8.09-18.08,18.08c0,9.98,8.09,18.08,18.08,18.08h50.32
		c9.99,0,18.08,8.09,18.08,18.08s-8.09,18.08-18.08,18.08H248.71c-9.99,0-18.08,8.09-18.08,18.08s8.09,18.08,18.08,18.08h166.34
		c9.99,0,18.08,8.09,18.08,18.08s-8.09,18.08-18.08,18.08H271.78c-9.98,0-18.08,8.09-18.08,18.08s8.09,18.08,18.08,18.08h143.27
		c9.99,0,18.08,8.09,18.08,18.08s-8.09,18.08-18.08,18.08H248.71c-9.99,0-18.08,8.09-18.08,18.08s8.09,18.08,18.08,18.08h117.44
		c9.99,0,18.08,8.09,18.08,18.08s-8.09,18.08-18.08,18.08h-50.32c-9.98,0-18.08,8.09-18.08,18.08s8.09,18.08,18.08,18.08h206.81
		c90.22,0,163.37-72.85,163.37-162.72S612.86,4.91,522.63,4.91z"/>
	
		<linearGradient id="SVGID_2_" gradientUnits="userSpaceOnUse" x1="501.8232" y1="53.2316" x2="256.6078" y2="298.447" gradientTransform="matrix(1 0 0 -1 0 487.8898)">
		<stop  offset="0" style="stop-color:#D91B7D"/>
		<stop  offset="1" style="stop-color:#F29223"/>
	</linearGradient>
	<path class="st1" d="M155.19,113.39h32.65c9.99,0,18.08-8.09,18.08-18.08s-8.09-18.08-18.08-18.08h-32.65h-5.94h-12.14
		c-9.99,0-18.08,8.09-18.08,18.08s8.09,18.08,18.08,18.08h12.14H155.19z"/>
	
		<linearGradient id="SVGID_3_" gradientUnits="userSpaceOnUse" x1="464.5582" y1="15.9666" x2="219.3428" y2="261.1819" gradientTransform="matrix(1 0 0 -1 0 487.8898)">
		<stop  offset="0" style="stop-color:#D91B7D"/>
		<stop  offset="1" style="stop-color:#F29223"/>
	</linearGradient>
	<path class="st2" d="M120.55,185.71h97.51c9.99,0,18.08-8.09,18.08-18.08s-8.09-18.08-18.08-18.08h-97.51h-9.04h-9.04
		c-9.99,0-18.08,8.09-18.08,18.08s8.09,18.08,18.08,18.08h9.04H120.55z"/>
	
		<linearGradient id="SVGID_4_" gradientUnits="userSpaceOnUse" x1="429.5023" y1="-19.0894" x2="184.2869" y2="226.126" gradientTransform="matrix(1 0 0 -1 0 487.8898)">
		<stop  offset="0" style="stop-color:#D91B7D"/>
		<stop  offset="1" style="stop-color:#F29223"/>
	</linearGradient>
	<path class="st3" d="M155.19,258.03h32.65c9.99,0,18.08-8.09,18.08-18.08c0-9.98-8.09-18.08-18.08-18.08h-32.65h-5.94h-12.14
		c-9.99,0-18.08,8.09-18.08,18.08s8.09,18.08,18.08,18.08h12.14H155.19z"/>
</g>
<path d="M0,384.81h23.89c14.54,0,23.89,9.5,23.89,24.03v52.67c0,14.54-9.35,24.03-23.89,24.03H0V384.81z M23.17,471.16
	c5.9,0,9.35-3.45,9.35-9.35v-53.25c0-5.9-3.45-9.35-9.35-9.35h-7.92v71.96L23.17,471.16L23.17,471.16z"/>
<path d="M65.91,384.81h43.32v14.39H81.17v28.06h22.31v14.39H81.17v29.5h28.06v14.39H65.91V384.81z"/>
<path d="M124.92,384.81h15.25v86.35h27.2v14.39h-42.45V384.81z"/>
<path d="M182.06,384.81h15.25v100.74h-15.25V384.81z"/>
<path d="M266.24,453.31v8.2c0,14.54-9.35,24.03-23.89,24.03h-25.47V384.81h24.18c14.54,0,23.89,9.5,23.89,24.03v5.32
	c0,9.07-3.6,15.54-10.22,19.28C262.07,436.91,266.24,443.67,266.24,453.31z M232.14,399.2v27.34h6.76c7.34,0,10.79-3.45,10.79-10.79
	v-7.2c0-5.9-3.45-9.35-9.35-9.35L232.14,399.2L232.14,399.2z M250.99,451.73c0-7.34-3.45-10.79-10.79-10.79h-8.06v30.22h9.5
	c5.9,0,9.35-3.45,9.35-9.35L250.99,451.73L250.99,451.73z"/>
<path d="M282.94,384.81h43.32v14.39H298.2v28.06h22.31v14.39H298.2v29.5h28.06v14.39h-43.32V384.81z"/>
<path d="M376.2,485.55l-11.08-41.59h-7.92v41.59h-15.25V384.81h23.89c14.54,0,23.89,9.5,23.89,24.03v11.08
	c0,9.35-3.89,16.55-10.51,20.58l12.81,45.04H376.2V485.55z M357.2,429.57h7.92c5.9,0,9.35-3.45,9.35-9.35v-11.66
	c0-5.9-3.45-9.35-9.35-9.35h-7.92V429.57z"/>
<path d="M455.5,384.81l-20.44,58.57v42.17h-15.25v-42.17l-20.44-58.57h16.26l11.8,38.43l12.09-38.43H455.5z"/>
<path class="st4" d="M469.6,384.81h42.6v14.39h-27.34v29.5h21.59v14.39h-21.59v42.45H469.6V384.81z"/>
<path class="st4" d="M525.59,462.67v-54.98c0-14.54,9.79-24.32,24.47-24.32s24.47,9.79,24.47,24.32v54.98
	c0,14.54-9.79,24.32-24.47,24.32S525.59,477.2,525.59,462.67z M559.26,462.67v-54.98c0-6.33-3.6-9.93-9.21-9.93
	c-5.61,0-9.21,3.6-9.21,9.93v54.98c0,6.33,3.6,9.93,9.21,9.93C555.66,472.6,559.26,469,559.26,462.67z"/>
<path class="st4" d="M591.5,462.67v-54.98c0-14.54,9.79-24.32,24.47-24.32s24.47,9.79,24.47,24.32v54.98
	c0,14.54-9.79,24.32-24.47,24.32S591.5,477.2,591.5,462.67z M625.18,462.67v-54.98c0-6.33-3.6-9.93-9.21-9.93
	c-5.61,0-9.21,3.6-9.21,9.93v54.98c0,6.33,3.6,9.93,9.21,9.93S625.18,469,625.18,462.67z"/>
<path class="st4" d="M658.71,384.81h23.89c14.54,0,23.89,9.5,23.89,24.03v52.67c0,14.54-9.35,24.03-23.89,24.03h-23.89V384.81z
	 M681.88,471.16c5.9,0,9.35-3.45,9.35-9.35v-53.25c0-5.9-3.45-9.35-9.35-9.35h-7.92v71.96L681.88,471.16L681.88,471.16z"/>
<path class="st4" d="M721.17,462.24v-3.6l14.68-1.58v3.74c0,7.34,3.74,11.8,9.79,11.8c6.04,0,9.79-3.74,9.79-9.64
	c0-6.33-2.59-10.94-13.96-21.73c-15.11-14.25-19.43-22.02-19.43-33.1c0-14.97,8.63-24.75,23.17-24.75s23.17,9.79,23.17,24.9v2.59
	l-14.68,1.58v-2.88c0-7.77-3.02-11.8-8.35-11.8s-8.35,3.31-8.35,9.64c0,6.33,3.17,10.94,13.96,21.73
	c14.68,14.68,19.43,22.02,19.43,33.1c0,14.39-10.07,24.75-24.61,24.75C731.24,486.99,721.17,476.63,721.17,462.24z"/>
</svg>
